#!OML:ASF F:\VICON\USERDATA\INSTALL\rory3\rory3.ASF
:FULLY-SPECIFIED
:DEGREES
2231
root -0.116687 11.0535 -5.42007 -1.66088 -22.2919 1.72398
lowerback 47.1748 2.04113 -3.42538
upperback 13.6343 0.211058 -1.47228
thorax -6.07311 -0.122913 0.0828013
lowerneck -12.7927 -1.44446 -6.2182
upperneck 13.5934 -1.85721 6.9103
head 6.35134 -0.663033 3.06666
rclavicle -2.3059e-014 -8.15017e-015
rhumerus -24.9604 34.2975 -74.9089
rradius 50.7317
rwrist -24.6922
rhand -17.8355 2.34355
rfingers 7.12502
rthumb 8.42914 -27.4682
lclavicle -2.3059e-014 -8.15017e-015
lhumerus -38.6318 -32.965 92.1331
lradius 50.2321
lwrist 51.2242
lhand -19.8144 27.8825
lfingers 7.12502
lthumb 6.51902 57.7621
rfemur -81.9363 -20.2338 8.10398
rtibia 115.082
rfoot -25.7479 -7.95144
rtoes -5.67381
lfemur -85.272 11.836 -13.794
ltibia 108.426
lfoot -15.7927 -10.7657
ltoes -1.33413
2232
root -0.144702 11.0954 -5.38515 -1.32348 -22.2182 1.72896
lowerback 47.1548 2.06588 -3.43793
upperback 13.5618 0.243645 -1.4328
thorax -6.15072 -0.105989 0.117692
lowerneck -12.7723 -1.46776 -6.2825
upperneck 13.7337 -1.89909 7.0048
head 6.39668 -0.679086 3.10577
rclavicle -1.03368e-014 4.87022e-014
rhumerus -24.746 33.709 -74.5757
rradius 50.8982
rwrist -24.431
rhand -20.424 2.92564
rfingers 7.12502
rthumb 5.93047 -26.9714
lclavicle -1.03368e-014 4.87022e-014
lhumerus -38.0464 -33.1144 92.0019
lradius 49.281
lwrist 50.5789
lhand -18.8224 27.8148
lfingers 7.12502
lthumb 7.47656 57.6627
rfemur -81.8354 -20.2266 8.22545
rtibia 114.887
rfoot -25.9292 -8.15378
rtoes -5.82959
lfemur -85.2309 11.8376 -13.8067
ltibia 108.235
lfoot -15.9055 -10.7163
ltoes -1.48029
2233
root -0.171106 11.143 -5.35188 -0.93286 -22.1783 1.67482
lowerback 47.1356 2.08351 -3.38601
upperback 13.4404 0.293532 -1.41269
thorax -6.28477 -0.0772636 0.092143
lowerneck -12.6969 -1.47393 -6.31078
upperneck 13.8267 -1.93145 7.13374
head 6.41687 -0.687022 3.15041
rclavicle -3.69739e-014 3.24019e-014
rhumerus -24.7457 33.1487 -74.381
rradius 51.1389
rwrist -24.3687
rhand -23.999 5.68012
rfingers 7.12502
rthumb 2.47831 -24.2852
lclavicle -3.69739e-014 3.24019e-014
lhumerus -37.3824 -33.1658 91.7576
lradius 48.2694
lwrist 49.6104
lhand -17.5834 28.0682
lfingers 7.12502
lthumb 8.67236 57.8701
rfemur -81.7772 -20.1898 8.40314
rtibia 114.643
rfoot -26.068 -8.31525
rtoes -6.249
lfemur -85.2013 11.8579 -13.7587
ltibia 107.965
lfoot -15.9522 -10.7199
ltoes -0.886187
2234
root -0.193169 11.1988 -5.31847 -0.614499 -22.1214 1.6876
lowerback 47.0642 2.05995 -3.32336
upperback 13.419 0.29825 -1.43005
thorax -6.29307 -0.0706475 0.0406388
lowerneck -12.8194 -1.49951 -6.24054
upperneck 13.9143 -1.98622 7.18681
head 6.4697 -0.702932 3.15208
rclavicle 1.23246e-014 3.20043e-014
rhumerus -24.6254 32.8138 -74.2463
rradius 51.2155
rwrist -25.1391
rhand -25.8041 7.21078
rfingers 7.12502
rthumb 0.734922 -22.7677
lclavicle 1.23246e-014 3.20043e-014
lhumerus -36.5792 -33.166 91.4541
lradius 47.3311
lwrist 48.9494
lhand -17.097 28.4509
lfingers 7.12502
lthumb 9.14176 58.2327
rfemur -81.6 -20.1847 8.46245
rtibia 114.344
rfoot -26.2288 -8.42642
rtoes -6.60056
lfemur -85.0529 11.7358 -13.7304
ltibia 107.631
lfoot -16.0382 -10.7446
ltoes 0.687007
2235
root -0.214953 11.2578 -5.28311 -0.35842 -22.0847 1.74834
lowerback 46.8383 2.01208 -3.25758
upperback 13.5359 0.279446 -1.48029
thorax -6.10879 -0.0777682 -0.0360729
lowerneck -12.9735 -1.52339 -6.22036
upperneck 13.9017 -2.02804 7.27364
head 6.49608 -0.712093 3.17306
rclavicle -1.19271e-014 2.54444e-014
rhumerus -24.0939 32.411 -73.961
rradius 51.2136
rwrist -26.3661
rhand -24.5774 5.00929
rfingers 7.12502
rthumb 1.91976 -24.9618
lclavicle -1.19271e-014 2.54444e-014
lhumerus -35.5859 -33.1992 91.0651
lradius 46.3984
lwrist 48.2513
lhand -17.795 28.2903
lfingers 7.12502
lthumb 8.46818 58.1005
rfemur -81.3397 -20.1494 8.44999
rtibia 114.02
rfoot -26.4127 -8.51081
rtoes -6.50694
lfemur -84.8107 11.6259 -13.774
ltibia 107.264
lfoot -16.2115 -10.7099
ltoes 1.6851
